<svg xmlns="http://www.w3.org/2000/svg" width="20" height="20" viewBox="0 0 20 20">
  <g id="Group_2523" data-name="Group 2523" transform="translate(850.934 -22555.514)">
    <rect id="Rectangle_673" data-name="Rectangle 673" width="20" height="20" rx="5" transform="translate(-850.934 22555.514)" fill="#707070"/>
    <path id="icons8-edit" d="M11.69,2.31a1.058,1.058,0,0,0-1.5,0l-.035.035-.006,0L2.5,10a.225.225,0,0,0-.056.1l-.436,1.628a.217.217,0,0,0,.21.273.212.212,0,0,0,.056-.008L3.9,11.556A.219.219,0,0,0,4,11.5l7.652-7.651a.043.043,0,0,0,.005-.009l.033-.033A1.057,1.057,0,0,0,11.69,2.31Zm-.307.307a.624.624,0,0,1,0,.881l-.186.186L10.315,2.8l.186-.186a.623.623,0,0,1,.881,0Zm-8.6,7.894.7.7-.964.259Z" transform="translate(-848.373 22558.514)" fill="#fff"/>
  </g>
</svg>
