<svg id="Group_561" data-name="Group 561" xmlns="http://www.w3.org/2000/svg" width="316.69" height="271.391" viewBox="0 0 316.69 271.391">
  <path id="Path_495" data-name="Path 495" d="M277.462,290.31a129.419,129.419,0,0,1,39.447,11.416,124.926,124.926,0,0,1,42.478,33.055A148.365,148.365,0,0,1,390.208,395.4c4.914,19.817,10.9,39.36,15.159,59.342,2.009,9.428,4.132,18.87,3.663,28.606-.428,8.913-3.492,9.267-10.409,9.138a85.122,85.122,0,0,1-15.627-2.133c-1.22-.253-1.8-.172-1.9,1.322-.252,3.556-.64,7.108-1.122,10.641-.261,1.913,1.081,1.241,1.836,1.244,8.941.043,17.881-.009,26.821.073,1.255.011,3.57-.787,3.581.707.012,1.56-2.268.678-3.466.679q-120.453.092-240.905.032c-1,0-2.9.688-2.9-.547-.006-1.657,1.924-.869,2.976-.887q8.044-.132,16.092-.009c1.4.021,1.735-.418,1.728-1.769-.056-9.747-.03-19.5-.03-29.831-1.942,2.234-3.589,4.121-5.226,6.015-9.936,11.5-20.071,22.792-32.428,31.823a41.52,41.52,0,0,1-9.311,5.177c-5.4,2.124-10.141.978-14.39-2.785-5.642-5-8.376-11.644-10.187-18.67-3.62-14.035-3.874-28.346-3.3-42.749.956-23.909,9.213-45.918,17.107-68.064,7.1-19.93,17.485-37.834,31.986-53.309a134.539,134.539,0,0,1,55.177-35.971c2.17-.745,3.024-1.532,2.821-3.942a33.257,33.257,0,0,1,2.557-16.161c4.352-10.06,12.219-15.435,23.036-15.9,11.492-.494,21.614,3.164,29.25,12.1C277.89,275.541,280.481,282.322,277.462,290.31Z" transform="translate(-95.518 -244.686)" fill="#807f7f"/>
  <path id="Path_496" data-name="Path 496" d="M413.274,363.848a.8.8,0,0,1-.391.931.589.589,0,0,1-.834-.246,17.337,17.337,0,0,1-1.031-1.927c-11.176-23.887-27.159-43.719-49.332-58.288a117.7,117.7,0,0,0-20.014-10.464c-.707-.29-2.245-.229-1.786-1.447.437-1.158,1.548-.222,2.288.077a123.05,123.05,0,0,1,44.724,31.2,146.063,146.063,0,0,1,25.816,38.964C412.915,363.091,413.124,363.527,413.274,363.848Z" transform="translate(-118.376 -248.119)" fill="#7e7e7e"/>
  <path id="Path_497" data-name="Path 497" d="M207.621,253.763c.239,3.823-2.055,6.792-4.507,9.645-2.075,2.415-4.3,4.695-4.013,8.258a1.216,1.216,0,0,1-1.35,1.378c-.918,0-1.312-.581-1.386-1.384-.179-1.958-.167-3.9,1.074-5.584,1.632-2.221,3.26-4.445,4.918-6.646a9.674,9.674,0,0,0,2.19-5.068c.215-2.927-.573-5.489-3.341-7.033a8.627,8.627,0,0,0-9.36.963c-.125.1-.225.239-.356.33-1.068.737-1.945,2.921-3.489,1.084-1.439-1.711.679-2.577,1.6-3.423,5.52-5.067,14.53-3.495,17.326,2.919A11.4,11.4,0,0,1,207.621,253.763Z" transform="translate(-103.187 -243.275)" fill="#7d7d7d"/>
  <path id="Path_498" data-name="Path 498" d="M100.48,532.268c-1.86,0-3.721.009-5.581-.006-.455,0-1.04.083-1.054-.633-.013-.618.424-.826.961-.826q5.944-.005,11.89.007a.715.715,0,0,1,.813.693c.035.665-.436.766-.962.766Z" transform="translate(-93.845 -271.952)" fill="#807f7f"/>
  <path id="Path_499" data-name="Path 499" d="M197.158,285.588a2.182,2.182,0,0,1,2.4-2.319,2.157,2.157,0,0,1,2.388,2.435,2.226,2.226,0,0,1-2.29,2.354A2.272,2.272,0,0,1,197.158,285.588Z" transform="translate(-104.149 -247.264)" fill="#7f7f7f"/>
  <path id="Path_500" data-name="Path 500" d="M232.9,395.417c-3.2-1.144-5.924-.155-8.654,1.606-8.109,5.229-15.941,10.847-23.689,16.584-4.107,3.041-8.5,5.6-12.89,8.274-.642-.62-.309-1.381-.31-2.035q-.038-19.012-.019-38.024,0-.853,0-1.707c0-.529-.129-.995-.765-1.015-.712-.022-.687.522-.692,1.011-.006.568,0,1.137,0,1.706,0,12.919-.036,25.837.041,38.754a3.581,3.581,0,0,1-1.993,3.651c-6.145,3.588-12.19,7.346-18.272,11.044-.416.253-.808.546-1.232.781a.876.876,0,0,0-.436,1.229c.306.6.792.321,1.226.062.9-.54,1.82-1.058,2.72-1.605,9.127-5.547,18.272-11.063,27.354-16.683,1.3-.8,1.932-.795,2.843.471q5.184,7.206,10.575,14.263a2.713,2.713,0,0,1,.316,3.225,156.263,156.263,0,0,1-20.8,33.261c-9.567,12.009-19.613,23.6-30.939,34.011-5.317,4.888-10.843,9.541-17.534,12.514-6.325,2.81-10.964,1.846-15.705-3.285-5-5.415-7.257-12.16-8.858-19.137-2.98-12.991-3.184-26.162-2.669-39.426.869-22.422,8.345-43.154,15.609-63.991,5.98-17.151,13.853-33.257,25.232-47.514,16.717-20.95,37.513-36.188,62.944-44.991,2.085-.722,2.616-.25,3.214,1.647a48.615,48.615,0,0,0,17.457,25.052c5.933,4.422,12.669,6.706,20.1,5,8-1.839,12.546-7.641,15.414-14.881a33.483,33.483,0,0,0,2.278-15.23,3.764,3.764,0,0,1,4.42-4.217c23.144,3.362,44.1,11.925,62.112,26.953,24.151,20.143,39.634,45.81,47.4,76.186,4.394,17.192,9.408,34.224,13.445,51.508,2.593,11.1,5.273,22.2,5.65,33.68a20.516,20.516,0,0,1-.83,7.44,4.176,4.176,0,0,1-3.9,3.09c-6.964.674-13.7-.94-20.48-2.069-.963-.16-.968-.781-.885-1.59.823-8.069,1.554-16.147,2.455-24.207.175-1.566-.135-1.972-1.674-1.96-7.476.058-14.953.074-22.429-.009-1.728-.019-1.934.585-1.842,2.144.384,6.547.606,13.1.9,20-10.882-3.259-21.467-6.408-32.037-9.6-4.01-1.213-7.984-2.544-11.983-3.795-1.136-.356-1.638-.7-1.151-2.156,2.067-6.19,3.98-12.434,5.84-18.69.4-1.357.925-1.709,2.363-1.622q25.028,1.507,50.066,2.838c.655.036,1.762.37,1.819-.6.072-1.206-1.145-.838-1.854-.88-9.717-.582-19.435-1.174-29.158-1.669-4.981-.254-4.985-.168-4.986-5.137,0-1.463-.013-2.925,0-4.388.006-.566-.262-1.06-.755-1.043s-.72.534-.717,1.094c.016,2.438-.085,4.879.038,7.311.073,1.445-.452,1.81-1.782,1.683-2.5-.239-5.008-.381-7.513-.564-.654-2.431-.312-3.111,1.941-3.858,6.024-19.393,12-38.8,18.132-58.158.759-2.4.213-3.143-2.062-3.753-17.61-4.719-35.191-9.546-52.782-14.34-.549-1.151,0-2.231.246-3.318a26.279,26.279,0,0,0-4.909-22.753c-8.438-11.019-25.954-13.012-36.655-4.173-11.26,9.3-13.324,23.813-5.034,35.945,1.256,1.839,1.268,3.385-.13,5.058-3.7,4.422-7.132,9.055-10.815,13.488C234.613,394.649,234.059,395.507,232.9,395.417Z" transform="translate(-95.684 -248.511)" fill="#f5f5f5"/>
  <path id="Path_501" data-name="Path 501" d="M343.022,453.67c-1.476.87-1.855,2.289-1.941,3.858a19.063,19.063,0,0,1-11.545-2.7c-7.753-4.639-15.724-9-24.775-10.656-5.8-1.062-11.551-.838-15.506,4.266-5.878,7.587-5.9,17,6.043,21.661,7.007,2.733,14.418,3.509,21.85,4.054,1.858.136,3.723.183,5.58.32.984.072,1.652-.076,1.356-1.293a4.193,4.193,0,0,1,3.707.492c-.637,2.162-1.138,4.376-1.96,6.465-.528,1.341.026,1.727,1.052,2.135,1.674.667,4.246.5,4.779,2.18.445,1.4-.787,3.347-1.3,5.044-1.492,4.935-3.065,9.848-4.457,14.811-.5,1.768-1.069,2.239-3,1.7-15.939-4.432-31.916-8.729-47.884-13.057-7.633-2.069-15.276-4.1-22.905-6.185-1.011-.276-2.054-.262-1.467-2.144q14.58-46.647,28.95-93.36c1.691-5.471,3.377-10.943,5.014-16.429.366-1.229.849-1.476,2.157-1.115q31.74,8.729,63.513,17.335c2.643.72,5.263,1.557,7.942,2.108,1.647.339,1.836.943,1.359,2.442-3.832,12.067-7.593,24.157-11.368,36.242q-3.136,10.037-6.251,20.079C341.648,452.93,340.875,454.17,343.022,453.67Z" transform="translate(-109.466 -256.269)" fill="#f5f5f5"/>
  <path id="Path_502" data-name="Path 502" d="M271.428,396.4q-6.8,22.072-13.593,44.144-7.176,23.212-14.428,46.4c-.543,1.727-.237,2.3,1.572,2.785q36.565,9.856,73.072,19.927c2.137.59,2.878.1,3.468-1.985,1.867-6.6,4-13.121,5.941-19.7.407-1.381.873-1.719,2.307-1.228q6.743,2.3,13.589,4.294c1.188.344,1.54.8,1.533,1.97-.042,7.474-.073,14.949.02,22.423.02,1.6-.7,1.607-1.884,1.6-9.265-.034-18.528-.019-27.793-.019q-58.51,0-117.021.053c-2.132,0-2.657-.474-2.627-2.619.133-9.584.1-19.173.021-28.759a6.128,6.128,0,0,1,1.532-4.148A161.972,161.972,0,0,0,218.885,446.9a3.556,3.556,0,0,0-.445-4.175c-3.727-4.8-7.274-9.746-10.954-14.588-.752-.988-.829-1.5.283-2.295,8.83-6.319,17.5-12.866,26.738-18.6a6.5,6.5,0,0,1,5.5-.962c4.307,1.2,8.48,2.659,12.106,5.362,2.8,2.09,3.47,3.822,2.011,6.908-3.665,7.751-8.85,14.088-17.724,15.926-6.1,1.265-12.285.293-18.4-.583-.4-.057-.79-.176-1.189-.242a.811.811,0,0,0-1.044.727c-.053.484.378.654.8.725,1.438.24,2.868.543,4.314.711,5.9.687,11.9,1.486,17.642-.321,8.888-2.8,14.377-9.349,17.48-17.883,1.143-3.146-.527-5.647-3.249-7.394-1.288-.826-2.589-1.633-3.885-2.449-.408-1.153.5-1.815,1.07-2.5,3.21-3.848,6.212-7.861,9.356-11.76,1.174-1.456,2.28-1.837,3.932-.921a24.649,24.649,0,0,0,6.5,2.619C270.42,395.366,271.164,395.577,271.428,396.4Z" transform="translate(-103.992 -258.118)" fill="#f5f5f5"/>
  <path id="Path_503" data-name="Path 503" d="M301,372.644c-4.509-1.178-9.049-2.256-13.515-3.58-1.873-.555-2.491-.1-3,1.727-1.32,4.716-2.9,9.363-4.368,14.037-.506.579-1.149.467-1.8.374-8.914-1.263-16.366-10.114-16.856-19.141a21.36,21.36,0,0,1,17.913-22.028c10.278-1.729,22.163,6.914,23.445,17.274a23.752,23.752,0,0,1-.505,9.144C302.09,371.293,301.995,372.246,301,372.644Z" transform="translate(-110.559 -253.302)" fill="#f5f5f5"/>
  <path id="Path_504" data-name="Path 504" d="M299.491,372c2.246-6.652,2.038-13.072-1.961-19.06a20.058,20.058,0,0,0-23.305-7.892c-8.989,3.067-14.185,11.2-13.557,21.222.523,8.336,7.267,15.737,16.031,17.583.63.132,1.269.221,1.9.33l-2.123,6.76c-3.18-1.135-6.536-1.831-9.418-3.714-.885-.579-1.322.008-1.776.587Q259.6,395.053,253.92,402.3l-7.664-2.744c3.881-3.937,6.941-8.544,10.459-12.777,1.239-1.491,3-2.952,3.35-4.666.347-1.686-1.8-3.053-2.715-4.655-10.149-17.827,2.7-39.812,23.184-40.143a26.887,26.887,0,0,1,25.98,34.4c-.194.7-.414,1.395-.622,2.09A39.312,39.312,0,0,1,299.491,372Z" transform="translate(-109.046 -252.654)" fill="#2568b2"/>
  <path id="Path_505" data-name="Path 505" d="M331.829,481.61c-1.247-.08-2.554.292-3.707-.492-5.239-.48-10.494-.826-15.712-1.475-5.461-.679-10.85-1.789-15.682-4.648-4.536-2.684-6.459-6.408-5.535-10.579,1.427-6.441,5.375-10.5,10.623-11.093,5.67-.637,10.881,1.051,15.995,3.1,6.161,2.469,11.883,5.819,17.663,9.05a1.481,1.481,0,0,1,.843,2.087C334.794,472.237,333.32,476.926,331.829,481.61Z" transform="translate(-113.505 -264.211)" fill="#f5f5f5"/>
  <path id="Path_506" data-name="Path 506" d="M252.9,303.505c14.435,8.083,23.143,5.728,33.133-2.536a29.17,29.17,0,0,1-1.088,10.82c-1.869,6.649-5.017,12.448-11.378,15.867-5.554,2.984-11.247,2.5-16.858.216a33.24,33.24,0,0,1-12.863-9.717c-.721-.854-1.3-1.53-.551-2.9.8-1.467-.057-3.164-.507-4.7-.679-2.317-1.531-4.587-2.153-6.918-.2-.763-.634-1.918.371-2.413a2.431,2.431,0,0,1,2.7.662,17.88,17.88,0,0,1,1.912,2.487,47.33,47.33,0,0,0,2.97,4.13c1.308,1.454,2.362,1.224,3.066-.6C252.189,306.5,252.483,304.993,252.9,303.505Z" transform="translate(-108.458 -249.029)" fill="#f5f5f5"/>
  <path id="Path_507" data-name="Path 507" d="M409.118,495.614q-1.363,14.14-2.719,28.282c-.312,3.3-.283,3.3-3.63,3.3-4.057,0-8.113-.021-12.169.018-1.1.011-1.708-.059-1.763-1.5-.378-9.955-.877-19.9-1.33-29.857a3.688,3.688,0,0,1,.107-.718,20.213,20.213,0,0,1,6.458-.895c3.807,0,7.621-.149,11.42.09C406.747,494.416,408.343,493.988,409.118,495.614Z" transform="translate(-123.133 -268.301)" fill="#f5f5f5"/>
  <path id="Path_508" data-name="Path 508" d="M363.02,503.1c6.829,1.957,13.467,3.869,20.115,5.749.719.2,1.051.483,1.085,1.3q.331,8.251.781,16.5c.066,1.2-.354,1.489-1.5,1.479-6.33-.052-12.66-.032-18.988-.019-.872,0-1.522.03-1.514-1.217C363.044,519.025,363.02,511.163,363.02,503.1Z" transform="translate(-120.689 -269.189)" fill="#ededed"/>
  <path id="Path_509" data-name="Path 509" d="M409.088,494.72c-1.438-.678-2.982-.443-4.478-.454-5.675-.043-11.351-.015-17.026-.016-.119-2.51-.22-5.02-.365-7.526-.058-.974.175-1.487,1.3-1.481q10.109.053,20.217,0c1,0,1.24.374,1.137,1.306C409.58,489.271,409.347,492,409.088,494.72Z" transform="translate(-123.104 -267.408)" fill="#ffa61f"/>
  <path id="Path_510" data-name="Path 510" d="M246.067,365.365c.221-7.859,2.147-14.6,6.394-20.606a10.516,10.516,0,0,1,1.238-1.489.968.968,0,0,1,.852-.23.718.718,0,0,1,.185,1.059,9.346,9.346,0,0,1-.556.791c-6.421,9.1-8.351,18.96-5.036,29.708.206.668.71,1.575-.165,1.882-1.021.358-1.029-.806-1.223-1.415A38.592,38.592,0,0,1,246.067,365.365Z" transform="translate(-109.027 -253.222)" fill="#7f807f"/>
  <path id="Path_511" data-name="Path 511" d="M262.3,318.41c4.281-.214,7.438,1.828,10.028,4.988.385.47,1.012,1.028.221,1.635-.7.54-1.028-.215-1.324-.594-3.276-4.185-7.489-5.389-12.55-4.072-.48.124-1.2.393-1.315-.515-.073-.594.363-.737.863-.939A12.659,12.659,0,0,1,262.3,318.41Z" transform="translate(-110.152 -250.767)" fill="#807f7f"/>
</svg>
