<svg xmlns="http://www.w3.org/2000/svg" width="15.976" height="15.648" viewBox="0 0 15.976 15.648">
  <g id="chart-646" transform="translate(0.001)">
    <path id="Path_1032" data-name="Path 1032" d="M15.618,0H12.307a.348.348,0,0,0-.252.6L13.084,1.6l-6,5.88-2.1-2.059-.563-.552a.5.5,0,0,0-.69,0L.142,8.382a.471.471,0,0,0,0,.676L.7,9.61a.5.5,0,0,0,.69,0L4.07,6.99,6.732,9.6a.5.5,0,0,0,.69,0l.286-.281a.487.487,0,0,0,.044-.035l6.586-6.45,1.029,1.008a.357.357,0,0,0,.608-.247V.349A.352.352,0,0,0,15.618,0Z" fill="#fff"/>
    <path id="Path_1033" data-name="Path 1033" d="M184.409,68.569v8.6a.483.483,0,0,0,.488.478h1.559a.483.483,0,0,0,.488-.478V66.086Z" transform="translate(-172.761 -61.997)" fill="#fff"/>
    <path id="Path_1034" data-name="Path 1034" d="M132.393,120.587v5.379a.483.483,0,0,0,.488.478h1.559a.483.483,0,0,0,.488-.478V118.1Z" transform="translate(-124.031 -110.797)" fill="#fff"/>
    <path id="Path_1035" data-name="Path 1035" d="M82.375,148.215a1.292,1.292,0,0,1-.91-.369l-1.091-1.068v6.088a.483.483,0,0,0,.488.478h1.559a.483.483,0,0,0,.488-.478V148.1A1.3,1.3,0,0,1,82.375,148.215Z" transform="translate(-75.299 -137.696)" fill="#fff"/>
    <path id="Path_1036" data-name="Path 1036" d="M30.639,130.853l-2.11,2.067a1.284,1.284,0,0,1-.17.139v4.868a.483.483,0,0,0,.488.478h1.559a.483.483,0,0,0,.488-.478V131.1Z" transform="translate(-26.568 -122.757)" fill="#fff"/>
  </g>
</svg>
