<svg xmlns="http://www.w3.org/2000/svg" width="163" height="92.5" viewBox="0 0 163 92.5">
  <g id="Group_2208" data-name="Group 2208" transform="translate(10862 1975)">
    <text id="_0" data-name="0" transform="translate(-10862 -1884.5)" fill="#707070" font-size="8" font-family="SFProDisplay-Light, SF Pro Display" font-weight="300" letter-spacing="0.03em"><tspan x="0" y="0">0</tspan></text>
    <text id="_1" data-name="1" transform="translate(-10835 -1884.5)" fill="#707070" font-size="8" font-family="SFProDisplay-Light, SF Pro Display" font-weight="300" letter-spacing="0.03em"><tspan x="0" y="0">1</tspan></text>
    <text id="_2" data-name="2" transform="translate(-10809 -1884.5)" fill="#707070" font-size="8" font-family="SFProDisplay-Light, SF Pro Display" font-weight="300" letter-spacing="0.03em"><tspan x="0" y="0">2</tspan></text>
    <text id="_3" data-name="3" transform="translate(-10783 -1884.5)" fill="#707070" font-size="8" font-family="SFProDisplay-Light, SF Pro Display" font-weight="300" letter-spacing="0.03em"><tspan x="0" y="0">3</tspan></text>
    <text id="_4" data-name="4" transform="translate(-10758 -1884.5)" fill="#707070" font-size="8" font-family="SFProDisplay-Light, SF Pro Display" font-weight="300" letter-spacing="0.03em"><tspan x="0" y="0">4</tspan></text>
    <text id="_5" data-name="5" transform="translate(-10731 -1884.5)" fill="#707070" font-size="8" font-family="SFProDisplay-Light, SF Pro Display" font-weight="300" letter-spacing="0.03em"><tspan x="0" y="0">5</tspan></text>
    <text id="_6" data-name="6" transform="translate(-10704 -1884.5)" fill="#707070" font-size="8" font-family="SFProDisplay-Light, SF Pro Display" font-weight="300" letter-spacing="0.03em"><tspan x="0" y="0">6</tspan></text>
    <line id="Line_8" data-name="Line 8" y2="77" transform="translate(-10859 -1975)" fill="none" stroke="rgba(112,112,112,0.31)" stroke-width="0.5"/>
    <line id="Line_9" data-name="Line 9" y2="77" transform="translate(-10833 -1975)" fill="none" stroke="rgba(112,112,112,0.31)" stroke-width="0.5"/>
    <line id="Line_10" data-name="Line 10" y2="77" transform="translate(-10807 -1975)" fill="none" stroke="rgba(112,112,112,0.31)" stroke-width="0.5"/>
    <line id="Line_11" data-name="Line 11" y2="77" transform="translate(-10781 -1975)" fill="none" stroke="rgba(112,112,112,0.31)" stroke-width="0.5"/>
    <line id="Line_12" data-name="Line 12" y2="77" transform="translate(-10755 -1975)" fill="none" stroke="rgba(112,112,112,0.31)" stroke-width="0.5"/>
    <line id="Line_13" data-name="Line 13" y2="77" transform="translate(-10729 -1975)" fill="none" stroke="rgba(112,112,112,0.31)" stroke-width="0.5"/>
    <line id="Line_14" data-name="Line 14" y2="77" transform="translate(-10703 -1975)" fill="none" stroke="rgba(112,112,112,0.31)" stroke-width="0.5"/>
    <path id="Path_7" data-name="Path 7" d="M-9507-1588.052l25.832-14.775,25.855-5.372,25.855-7.9,26.143,21.26,26,11.922,26.575-32.222" transform="translate(-1351.745 -322.5)" fill="none" stroke="#9c9999" stroke-linecap="round" stroke-width="1"/>
    <path id="Path_4" data-name="Path 4" d="M-9507-1588.052l25.688-20.147,26.287,23.844,25.568-39.5,26.43-23.7,52.287,49.844" transform="translate(-1351.745 -322.5)" fill="none" stroke="#706e6e" stroke-linecap="round" stroke-width="1"/>
  </g>
</svg>
