<svg xmlns="http://www.w3.org/2000/svg" width="10.112" height="11.236" viewBox="0 0 10.112 11.236">
  <path id="trash-icon" d="M3.591,5.362a.433.433,0,1,1,.866,0V8.57a.433.433,0,1,1-.866,0ZM9.406,3.546,8.961,9.418a2.038,2.038,0,0,1-.579,1.289,1.775,1.775,0,0,1-1.269.529H3a1.774,1.774,0,0,1-1.267-.529h0a2.04,2.04,0,0,1-.58-1.289L.708,3.546H0V2.286c0-.3.149-.419.443-.419H2.522V.987A.989.989,0,0,1,3.509,0h3.1a.989.989,0,0,1,.984.987v.88H9.725a.566.566,0,0,1,.091.005.353.353,0,0,1,.3.323c0,.018,0,.035,0,.052v1.3Zm-.869.016H1.576l.435,5.793a1.172,1.172,0,0,0,.326.741h0A.914.914,0,0,0,3,10.369H7.11a.92.92,0,0,0,.657-.274A1.17,1.17,0,0,0,8.1,9.354l.442-5.788Zm-2.046-1.7V1.1H3.625v.764Zm-.835,3.5a.433.433,0,1,1,.866,0V8.57a.433.433,0,1,1-.866,0V5.362Z" fill="#929292"/>
</svg>
