<svg xmlns="http://www.w3.org/2000/svg" width="134.281" height="39.627" viewBox="0 0 134.281 39.627">
  <g id="Group_1512" data-name="Group 1512" transform="translate(10565.368 -16011.34)">
    <g id="Group_1510" data-name="Group 1510" transform="translate(-10565.368 16011.34)">
      <path id="Path_359" data-name="Path 359" d="M599.4,333.344a1.2,1.2,0,0,1-.35-.845v-9.7a1.089,1.089,0,0,0-.043.231,12.68,12.68,0,0,1-15.487,11.321,1.19,1.19,0,0,0-1.366.7l-1.87,4.422a1.189,1.189,0,0,0,.64,1.562c.043.017.094.034.145.051a19.824,19.824,0,0,0,20.132-5.959Z" transform="translate(-566.705 -302.181)" fill="#9473cc"/>
      <path id="Path_360" data-name="Path 360" d="M423.471,177.595h4.8a1.2,1.2,0,0,0,1.178-.99,12.413,12.413,0,0,1,2.117-5.106,1.2,1.2,0,0,0-.128-1.537l-3.389-3.389a1.19,1.19,0,0,0-1.69.009.588.588,0,0,0-.094.111,19.675,19.675,0,0,0-3.97,9.562,1.187,1.187,0,0,0,1.033,1.332.428.428,0,0,0,.145.009" transform="translate(-422.276 -158.974)" fill="#4da8c7"/>
      <path id="Path_361" data-name="Path 361" d="M435,336.868a12.736,12.736,0,0,1-5.626-8.478,1.2,1.2,0,0,0-1.178-.99h-4.8a1.192,1.192,0,0,0-1.2,1.187.921.921,0,0,0,.009.154,19.924,19.924,0,0,0,9.665,14.574,1.144,1.144,0,0,0,.6.162,1.118,1.118,0,0,0,.376-.06,1.215,1.215,0,0,0,.726-.666l1.87-4.422a1.178,1.178,0,0,0-.444-1.46" transform="translate(-422.2 -306.389)" fill="#6e8cc9"/>
      <path id="Path_362" data-name="Path 362" d="M777.633,335.137l-1.793-1.793a1.2,1.2,0,0,1-.35-.845v-9.7a1.089,1.089,0,0,0-.043.231,12.558,12.558,0,0,1-2.348,6.343V332.5a3.587,3.587,0,0,0,1.05,2.536l1.784,1.784a17.538,17.538,0,0,0,1.7-1.682" transform="translate(-743.142 -302.181)" fill="#705799"/>
      <path id="Path_363" data-name="Path 363" d="M518.048,81.3a19.59,19.59,0,0,0-12.1,4.132,1.2,1.2,0,0,0-.213,1.673,1.279,1.279,0,0,0,.094.111L509.22,90.6a1.2,1.2,0,0,0,1.537.137,12.681,12.681,0,0,1,19.97,10.382v10.5a1.2,1.2,0,0,0,.35.845l1.793,1.793,2.954,2.954a1.19,1.19,0,0,0,1.69,0,1.2,1.2,0,0,0,.35-.845V101.114A19.836,19.836,0,0,0,518.048,81.3" transform="translate(-498.377 -81.298)" fill="#2ec2c7"/>
    </g>
    <g id="Group_1511" data-name="Group 1511" transform="translate(-10522.805 16016.867)">
      <path id="Path_364" data-name="Path 364" d="M304.272,668.245c-.051,2.4-2.21,3.4-4.484,3.4-1.712.013-3.117-.613-3.117-2.069,0-1.111.639-2.12,3.551-2.312,1.571-.115,3.155-.294,4.037-1.073v2.057Zm2.159,2.964v-7.371c0-2.478-1.8-4.152-5.4-4.139-3.411,0-5.621,1.737-5.774,4.407h2.274c.243-1.942,2.069-2.389,3.475-2.389,2.261,0,3.27.8,3.27,1.878s-1.06,1.648-4.33,1.814c-3.449.179-5.442,1.418-5.442,4.177,0,2.874,2.465,4.126,5.212,4.126a5.737,5.737,0,0,0,4.6-1.839,4.233,4.233,0,0,0,.332,1.533h2.184a7.652,7.652,0,0,1-.4-2.2" transform="translate(-294.5 -654.079)" fill="gray"/>
      <path id="Path_365" data-name="Path 365" d="M414.352,673.294h-2.184v-8.111c0-2.044-1.137-3.551-3.257-3.551a3.4,3.4,0,0,0-3.5,3.5v8.175H403.2V659.945h2.12v1.443a4.941,4.941,0,0,1,3.9-1.788c3.27,0,5.135,2.338,5.135,5.659Z" transform="translate(-389.315 -653.992)" fill="gray"/>
      <path id="Path_366" data-name="Path 366" d="M515.552,673.206H513.38v-8.124c0-2.044-1.137-3.551-3.27-3.551a3.411,3.411,0,0,0-3.5,3.5v8.175H504.4V659.845h2.12v1.443a4.941,4.941,0,0,1,3.9-1.788c3.27,0,5.135,2.338,5.135,5.659Z" transform="translate(-477.587 -653.905)" fill="gray"/>
      <path id="Path_367" data-name="Path 367" d="M612.159,668.159c-.051,2.414-2.21,3.4-4.484,3.4-1.712,0-3.117-.613-3.117-2.069,0-1.111.639-2.12,3.551-2.3,1.584-.1,3.155-.294,4.037-1.073v2.044Zm2.159,2.951v-7.371c0-2.491-1.814-4.139-5.4-4.139-3.423,0-5.621,1.737-5.774,4.407h2.286c.23-1.942,2.069-2.389,3.475-2.389,2.248,0,3.257.8,3.257,1.852s-1.06,1.661-4.318,1.827c-3.462.192-5.442,1.431-5.442,4.177,0,2.887,2.465,4.126,5.212,4.126a5.691,5.691,0,0,0,4.586-1.839,4,4,0,0,0,.345,1.533h2.172a6.408,6.408,0,0,1-.4-2.184" transform="translate(-563.069 -653.992)" fill="gray"/>
      <path id="Path_368" data-name="Path 368" d="M713.51,635H711.3V615.7h2.21Z" transform="translate(-658.058 -615.7)" fill="gray"/>
      <path id="Path_369" data-name="Path 369" d="M748.306,661.406a4.591,4.591,0,0,1,4.3,3.641H743.95a4.666,4.666,0,0,1,4.356-3.641m.128,10.015a4.678,4.678,0,0,1-4.611-4.407L755.038,667c.038-4.739-3.283-7.6-6.732-7.6a7,7,0,0,0,.141,14,6.234,6.234,0,0,0,6.285-4.471H752.42a4.174,4.174,0,0,1-3.985,2.491" transform="translate(-684.488 -653.818)" fill="gray"/>
      <path id="Path_370" data-name="Path 370" d="M861.994,673.5a7.007,7.007,0,0,1,0-14,6.37,6.37,0,0,1,6.221,4.458l-2.35.013a4.291,4.291,0,0,0-3.871-2.453,4.8,4.8,0,0,0-4.5,5.02,4.721,4.721,0,0,0,4.5,4.943,4.26,4.26,0,0,0,3.871-2.44h2.35a6.363,6.363,0,0,1-6.221,4.458" transform="translate(-783.663 -653.905)" fill="gray"/>
      <path id="Path_371" data-name="Path 371" d="M964.177,655.923c-3.1.358-5.263-1.482-5.263-4.88v-6.387H957.1v-2.1h1.814V639.7h2.172v2.861h3.04v2.1h-3.04v6.387c0,2.363,1.456,2.964,3.091,2.861Z" transform="translate(-872.459 -636.634)" fill="gray"/>
    </g>
  </g>
</svg>
