<svg xmlns="http://www.w3.org/2000/svg" width="17.518" height="17.589" viewBox="0 0 17.518 17.589">
  <g id="Group_532" data-name="Group 532" transform="translate(10426.258 -704.291)">
    <g id="Group_441" data-name="Group 441" transform="translate(17 -1)">
      <g id="genders-gender-svgrepo-com" transform="translate(-10444.285 705.29)">
        <g id="Group_519" data-name="Group 519" transform="translate(1.027 0.301)">
          <g id="Group_518" data-name="Group 518" transform="translate(0)">
            <path id="Path_485" data-name="Path 485" d="M11.6,10.887a.722.722,0,0,0-1.159.86,4.485,4.485,0,0,1,.71,4,4.436,4.436,0,1,1-4.973-5.683.741.741,0,0,0-.262-1.458A5.909,5.909,0,0,0,4.531,19.824L3.9,21.881l-1.01-.3a.722.722,0,1,0-.411,1.383l1.01.3L2.96,24.947a.732.732,0,0,0,.486.9.474.474,0,0,0,.224.037.676.676,0,0,0,.673-.523l.523-1.683,1.159.374a.474.474,0,0,0,.224.037.676.676,0,0,0,.673-.523.732.732,0,0,0-.486-.9l-1.159-.374.636-2.057a4.6,4.6,0,0,0,1.01.075,6.387,6.387,0,0,0,2.767-.636A5.889,5.889,0,0,0,11.6,10.887Z" transform="translate(-1.027 -8.594)" fill="#929292"/>
          </g>
        </g>
        <g id="Group_521" data-name="Group 521" transform="translate(5.644 0)">
          <g id="Group_520" data-name="Group 520">
            <path id="Path_486" data-name="Path 486" d="M145.117,11.942a.732.732,0,0,0-.9.486l-.374,1.309-1.72-3.066a5.967,5.967,0,0,0,1.645-7.628,5.859,5.859,0,0,0-8-2.281,5.873,5.873,0,0,0-2.281,8l.337.561a.726.726,0,1,0,1.2-.823,1.545,1.545,0,0,1-.262-.411,4.428,4.428,0,0,1,1.72-6.02,4.227,4.227,0,0,1,3.365-.411,4.414,4.414,0,0,1,.935,8.114,4.923,4.923,0,0,1-1.421.486.734.734,0,0,0,.112,1.458.225.225,0,0,1,.15.037,5.179,5.179,0,0,0,1.234-.374l1.72,3.066-1.346-.374a.755.755,0,0,0-.9.523.79.79,0,0,0,.523.9l3.029.86a.28.28,0,0,0,.187.037.689.689,0,0,0,.71-.523L145.6,12.8A.709.709,0,0,0,145.117,11.942Z" transform="translate(-132.733 0)" fill="#929292"/>
          </g>
        </g>
      </g>
    </g>
  </g>
</svg>
