<svg xmlns="http://www.w3.org/2000/svg" width="11.765" height="11.765" viewBox="0 0 11.765 11.765">
  <g id="_2639912_save_icon" data-name="2639912_save_icon" transform="translate(-4 -4)">
    <path id="Path_682" data-name="Path 682" d="M13.626,4h-1.07V7.209a.535.535,0,0,1-.535.535H7.209a.535.535,0,0,1-.535-.535V4H5.07A1.069,1.069,0,0,0,4,5.07V14.7a1.069,1.069,0,0,0,1.07,1.07H14.7a1.069,1.069,0,0,0,1.07-1.07V6.139Zm0,10.7H6.139V11.487a1.069,1.069,0,0,1,1.07-1.07h5.348a1.069,1.069,0,0,1,1.07,1.07Z" fill="#f0f0f0"/>
    <rect id="Rectangle_597" data-name="Rectangle 597" width="0.828" height="3.313" transform="translate(10.627 4)" fill="#f0f0f0"/>
  </g>
</svg>
